<svg version="1.1" id="Layer_1" xmlns="http://www.w3.org/2000/svg" xmlns:xlink="http://www.w3.org/1999/xlink" x="0px" y="0px"
	 width="50.876px" height="32.5px" viewBox="0 0 50.876 32.5" enable-background="new 0 0 50.876 32.5" xml:space="preserve">
<path fill="url(#skyGradient)" fill-rule="evenodd" clip-rule="evenodd" d="M50.738,20.832c-0.278,0.669-0.612,1.299-1.244,1.709
	c-0.053,0.033-0.104,0.066-0.226,0.146c0.25-0.415,0.47-0.746,0.659-1.097c0.509-0.959,0.334-1.679-0.58-2.274
	c-0.957-0.626-2.048-0.901-3.155-1.062c-1.436-0.211-2.878-0.354-4.321-0.509c-1.358-0.147-2.577-0.695-3.758-1.333
	c-2.267-1.217-4.502-2.48-6.786-3.654c-1.299-0.669-2.665-1.207-4.013-1.772c-2.461-1.03-4.955-1.029-7.495-0.263
	c-3.121,0.939-6.099,2.22-8.955,3.766c-2.561,1.388-5.054,2.899-7.58,4.355c-0.31,0.176-0.625,0.371-0.965,0.46
	C1.251,19.593,0.579,19.245,0,18.175c0-0.248,0-0.5,0-0.746c0.451-1.437,0.905-2.867,1.35-4.301
	c0.234-0.751,0.474-1.501,0.669-2.262c0.133-0.525-0.056-0.787-0.596-0.867C1.03,9.94,0.626,9.94,0.229,9.916
	C0.228,9.247,0.313,9.167,0.952,9.137c1.077-0.049,2.152-0.112,3.229-0.169c0.095-0.005,0.19,0,0.356,0
	c-0.243,0.771-0.473,1.501-0.705,2.231c-0.642,2.012-1.29,4.022-1.922,6.035c-0.113,0.362-0.297,0.791,0.075,1.079
	c0.351,0.272,0.674-0.047,0.975-0.222c3.555-2.077,7.071-4.224,10.678-6.205c1.758-0.969,3.658-1.69,5.539-2.414
	c3.299-1.268,6.577-1.058,9.793,0.371c2.709,1.201,5.25,2.717,7.783,4.241c0.65,0.39,1.303,0.785,1.944,1.195
	c1.465,0.929,3.075,1.382,4.787,1.596c1.727,0.211,3.435,0.553,5.055,1.232c0.152,0.063,0.303,0.135,0.45,0.207
	c0.762,0.376,1.411,0.869,1.748,1.685C50.738,20.278,50.738,20.556,50.738,20.832z M3.903,3.311C3.823,3.359,3.745,3.41,3.664,3.455
	c-0.493,0.283-0.705,0.798-0.547,1.34c0.144,0.489,0.671,0.86,1.162,0.816C4.83,5.563,5.236,5.176,5.325,4.612
	C5.413,4.06,5.181,3.7,4.484,3.311C4.291,3.311,4.096,3.311,3.903,3.311z M6.876,23.488c0.192-1.098,0.364-2.085,0.538-3.103
	c-0.263,0-0.45,0-0.654,0c-0.11,0.595-0.217,1.168-0.343,1.834c-0.569-0.604-1.063-1.134-1.569-1.651
	c-0.11-0.113-0.27-0.173-0.474-0.299c-0.189,1.103-0.36,2.093-0.534,3.108c0.254,0,0.442,0,0.662,0
	c0.112-0.599,0.222-1.184,0.341-1.828C5.582,22.144,6.037,22.956,6.876,23.488z M43.864,23.323c-0.01-0.05-0.025-0.104-0.014-0.156
	c0.156-0.918,0.319-1.84,0.489-2.771c0.548,0,1.082-0.035,1.611,0.009c0.353,0.03,0.608,0.265,0.666,0.642
	c0.055,0.394-0.143,0.666-0.464,0.853c-0.152,0.083-0.327,0.135-0.531,0.22c0.329,0.412,0.641,0.807,0.983,1.234
	c-0.489,0.107-0.853,0.051-1.128-0.378c-0.191-0.296-0.455-0.545-0.742-0.886c-0.065,0.316-0.116,0.54-0.156,0.767
	C44.47,23.438,44.475,23.438,43.864,23.323z M44.765,21.565c0.419-0.058,0.691-0.071,0.948-0.144c0.188-0.05,0.358-0.266,0.138-0.38
	c-0.232-0.124-0.554-0.118-0.832-0.078C44.934,20.975,44.884,21.272,44.765,21.565z M34.864,22.506
	c0.141,0.169,0.271,0.309,0.417,0.475c-0.921,0.516-1.85,0.657-2.792,0.223c-0.968-0.449-1.069-1.649-0.235-2.359
	c0.896-0.759,2.396-0.759,3.354,0.021c-0.136,0.15-0.272,0.298-0.413,0.453c-0.525-0.382-1.08-0.55-1.688-0.394
	c-0.288,0.076-0.581,0.208-0.804,0.397c-0.542,0.476-0.391,1.189,0.294,1.433C33.634,22.975,34.241,22.86,34.864,22.506z
	 M15.195,21.508c0.491,0,0.953,0,1.431,0c0.048,0.399-0.038,0.627-0.466,0.573c-0.161-0.021-0.332,0-0.494,0
	c-0.631,0-0.631,0-0.716,0.698c0.48,0,0.95,0,1.413,0c0.085,0.599,0.075,0.614-0.468,0.614c-0.578,0-1.155,0-1.779,0
	c0.18-1.019,0.349-2,0.524-3.003c0.746,0,1.468,0,2.187,0c0.074,0.428-0.092,0.6-0.514,0.549c-0.22-0.025-0.443,0.011-0.664-0.011
	C15.26,20.894,15.13,21.072,15.195,21.508z M12.167,20.868c-0.064,0.021-0.104,0.042-0.142,0.046
	c-0.732,0.05-0.736,0.05-0.872,0.758c-0.105,0.553-0.196,1.112-0.3,1.688c-0.208,0-0.403,0-0.663,0
	c0.136-0.829,0.265-1.603,0.4-2.431c-0.296,0-0.521,0-0.801,0c0.017-0.195,0.031-0.351,0.041-0.533c0.792,0,1.558,0,2.385,0
	C12.202,20.548,12.187,20.713,12.167,20.868z M20.241,20.404c-0.131,0.792-0.253,1.558-0.388,2.38c0.501,0,0.947,0,1.394,0
	c0.068,0.575,0.039,0.609-0.45,0.609c-0.559,0-1.123,0-1.741,0c0.138-0.814,0.267-1.587,0.397-2.352
	c0.009-0.058,0.026-0.106,0.036-0.164C19.584,20.32,19.584,20.32,20.241,20.404z M24.137,20.374c0.255,0,0.424,0,0.668,0
	c-0.132,0.803-0.254,1.579-0.389,2.414c0.497,0,0.952,0,1.386,0c0.064,0.59,0.039,0.61-0.453,0.6
	c-0.556-0.014-1.098-0.004-1.73-0.004C23.796,22.345,23.967,21.372,24.137,20.374z M0.907,20.386c0.234,0,0.437,0,0.695,0
	c-0.176,1.008-0.35,1.984-0.524,2.983c-0.216,0-0.405,0-0.669,0C0.572,22.391,0.735,21.407,0.907,20.386z M28.831,23.378
	c-0.236,0-0.418,0-0.667,0c0.073-0.464,0.132-0.902,0.203-1.339c0.063-0.394,0.136-0.788,0.21-1.18
	c0.104-0.544,0.104-0.544,0.764-0.444C29.171,21.394,29.008,22.375,28.831,23.378z M40.135,20.557
	c-0.122-0.272-0.313-0.272-0.474-0.056c-0.696,0.917-1.376,1.85-2.128,2.868c0.425-0.025,0.788,0.149,0.99-0.252
	c0.267-0.534,0.693-0.692,1.274-0.642c0.321,0.025,0.493,0.107,0.62,0.404c0.239,0.564,0.251,0.559,0.906,0.443
	C40.92,22.396,40.528,21.473,40.135,20.557z M39.264,22.035l0.468-0.839l0.473,0.839H39.264z"/>


                    <defs>
        <linearGradient id="skyGradient" x1="100%" y1="100%">
          <stop offset="0%" stop-color="#ffa600" stop-opacity="1">
            <!--<animate attributeName="stop-color" values="#ffa600;#ff552f;#ffa600;#ff552f;#ffa600" dur="8s" repeatCount="indefinite" />-->
          </stop>
          <stop offset="100%" stop-color="#ff552f" stop-opacity="1">
            <!--<animate attributeName="stop-color" values="#ff552f;#ffa600;#ff552f;#ffa600;#ff552f" dur="8s" repeatCount="indefinite" />-->
			  <!--<animate attributeName="offset" values=".95;.80;.60;.40;.20;0;.20;.40;.60;.80;.95" dur="14s" repeatCount="indefinite" />-->
          </stop>
        </linearGradient>
</defs>
</svg>