<svg version="1.1" id="Layer_1" xmlns="http://www.w3.org/2000/svg" xmlns:xlink="http://www.w3.org/1999/xlink" x="0px" y="0px"
	 width="35px" height="36.43px" viewBox="0 0 40 40.43" enable-background="new 0 0 40 40.43" xml:space="preserve">
<path fill="#FFFFFF" d="M9.545,27.188c0-1.903,0-3.809,0-5.715c0.242-0.569,0.398-0.671,1.027-0.671c0.16,0,0.32-0.002,0.479,0
	c0.516,0.007,0.836,0.325,0.842,0.837c0.005,0.393,0.001,0.784,0.001,1.178c0,0.111,0,0.221,0,0.329c0.287,0,0.542,0,0.811,0
	c0-0.521-0.004-1.023,0.001-1.53c0.004-0.486,0.332-0.812,0.815-0.813c0.333-0.001,0.666-0.005,0.998,0.005
	c0.151,0.004,0.26-0.038,0.367-0.148c0.625-0.637,1.262-1.262,1.886-1.899c0.215-0.219,0.458-0.32,0.763-0.32
	c2.804,0.005,5.608,0.002,8.41,0.003c0.594,0,0.895,0.303,0.895,0.897c0,1.191,0,2.384,0,3.574c0,0.078,0,0.155,0,0.231
	c0.286,0,0.542,0,0.811,0c0-0.5-0.002-0.983,0-1.47c0.002-0.561,0.316-0.872,0.883-0.875c0.146,0,0.293,0,0.438,0
	c0.63,0,0.787,0.102,1.029,0.671c0,1.905,0,3.81,0,5.714c-0.239,0.572-0.393,0.675-1.025,0.675c-0.174,0-0.346,0.002-0.52-0.002
	c-0.467-0.01-0.791-0.323-0.804-0.791c-0.008-0.286,0-0.572,0-0.858c0-0.23,0-0.461,0-0.694c-0.283,0-0.539,0-0.811,0
	c0,0.23-0.009,0.45,0.003,0.666c0.016,0.301-0.099,0.537-0.31,0.747c-0.996,0.99-1.989,1.983-2.98,2.981
	c-0.216,0.218-0.459,0.314-0.765,0.314c-1.743-0.009-3.489-0.009-5.234,0c-0.324,0-0.573-0.107-0.797-0.334
	c-0.625-0.638-1.262-1.263-1.888-1.898c-0.097-0.098-0.194-0.139-0.333-0.135c-0.338,0.009-0.68,0.006-1.019,0.002
	c-0.491-0.006-0.809-0.33-0.812-0.82c-0.003-0.438-0.001-0.877-0.001-1.318c0-0.068,0-0.14,0-0.204c-0.288,0-0.544,0-0.796,0
	c-0.007,0.028-0.013,0.04-0.013,0.053c-0.001,0.48,0,0.961-0.004,1.439c-0.003,0.527-0.32,0.847-0.844,0.851
	c-0.16,0.002-0.32,0-0.479,0C9.937,27.861,9.783,27.759,9.545,27.188z M18.638,28.355c0.015,0.007,0.029,0.017,0.045,0.024
	c1.174-1.479,2.347-2.954,3.553-4.472c-0.63,0-1.198,0-1.804,0c0.644-1.064,1.271-2.099,1.917-3.161
	c-0.656,0-1.266,0.005-1.877-0.003c-0.146-0.002-0.223,0.04-0.289,0.173c-0.605,1.228-1.218,2.451-1.829,3.678
	c-0.024,0.05-0.042,0.104-0.076,0.191c0.558,0,1.083,0,1.637,0C19.48,25.999,19.059,27.176,18.638,28.355z M22.359,16.839
	c0.447,0,0.894,0.005,1.339,0c0.456-0.006,0.771-0.323,0.783-0.783c0.007-0.219,0.002-0.438,0.002-0.659
	c-0.002-0.583-0.301-0.88-0.887-0.882c-0.833-0.002-1.664,0-2.495,0c-0.943,0-1.89-0.003-2.833,0.001
	c-0.533,0.002-0.836,0.315-0.843,0.848c0,0.233-0.006,0.466,0.002,0.698c0.018,0.461,0.333,0.77,0.792,0.775
	c0.446,0.006,0.892,0.001,1.338,0.001c0.07,0,0.142,0,0.232,0c0,0.279,0,0.527,0,0.785c0.786,0,1.554,0,2.34,0
	c0-0.263,0-0.513,0-0.785C22.216,16.839,22.29,16.839,22.359,16.839z"/>
</svg>