<svg version="1.1"  style="margin-top: 7px" id="Layer_1" xmlns="http://www.w3.org/2000/svg" xmlns:xlink="http://www.w3.org/1999/xlink" x="0px" y="0px"
	 width="32px" height="40.429px" viewBox="0 0 32 40.429" enable-background="new 0 0 32 40.429" xml:space="preserve">
<path  fill="#fff" d="M14.15,18.405c-0.751,0.733-1.676,1.1-2.774,1.1c-1.098,0-2.023-0.366-2.774-1.1c-0.751-0.733-1.127-1.646-1.127-2.737
	s0.375-2.004,1.127-2.736c0.751-0.734,1.676-1.101,2.774-1.101c1.099,0,2.023,0.366,2.774,1.101
	c0.751,0.732,1.126,1.646,1.126,2.736S14.901,17.671,14.15,18.405z M13.587,15.672c0-0.662-0.212-1.228-0.638-1.694
	c-0.425-0.469-0.948-0.702-1.568-0.702s-1.143,0.233-1.568,0.702c-0.425,0.467-0.638,1.032-0.638,1.694
	c0,0.663,0.213,1.227,0.638,1.69c0.425,0.464,0.948,0.696,1.568,0.696s1.143-0.232,1.568-0.696S13.587,16.335,13.587,15.672z
	 M21.877,12h1.658v7.43h-1.658l-3.539-4.655v4.655H16.68V12h1.552l3.646,4.783V12z M6.941,23.028c0,1.19-0.471,1.96-1.414,2.307
	l1.881,2.657H5.368l-1.647-2.37H2.572v2.37H0.914v-7.43h2.817c1.155,0,1.979,0.195,2.471,0.585
	C6.694,21.536,6.941,22.163,6.941,23.028z M4.942,23.909c0.206-0.184,0.309-0.476,0.309-0.876s-0.106-0.676-0.319-0.824
	c-0.213-0.148-0.585-0.224-1.116-0.224H2.572v2.2h1.212C4.351,24.186,4.737,24.094,4.942,23.909z M14.817,26.966
	c-0.751,0.733-1.676,1.1-2.774,1.1c-1.098,0-2.023-0.366-2.774-1.1c-0.751-0.733-1.127-1.646-1.127-2.737s0.375-2.004,1.127-2.737
	c0.751-0.733,1.676-1.1,2.774-1.1c1.099,0,2.023,0.366,2.774,1.1s1.126,1.646,1.126,2.737S15.568,26.233,14.817,26.966z
	 M14.253,24.234c0-0.662-0.212-1.228-0.638-1.695s-0.948-0.701-1.568-0.701s-1.143,0.233-1.568,0.701
	c-0.425,0.468-0.638,1.033-0.638,1.695c0,0.663,0.213,1.227,0.638,1.69c0.425,0.464,0.948,0.696,1.568,0.696
	s1.143-0.232,1.568-0.696S14.253,24.897,14.253,24.234z M22.416,27.991l-0.689-1.605h-3.115l-0.69,1.605h-1.765l3.211-7.43h1.604
	l3.211,7.43H22.416z M20.174,22.773l-0.936,2.157H21.1L20.174,22.773z M30.718,21.534c0.709,0.648,1.063,1.55,1.063,2.705
	s-0.346,2.069-1.037,2.742c-0.69,0.673-1.744,1.01-3.162,1.01h-2.54v-7.43h2.625C28.992,20.562,30.01,20.886,30.718,21.534z
	 M29.501,25.95c0.407-0.383,0.611-0.938,0.611-1.669c0-0.729-0.204-1.291-0.611-1.685c-0.407-0.393-1.033-0.59-1.876-0.59H26.7
	v4.518h1.053C28.511,26.525,29.094,26.333,29.501,25.95z"/>
</svg>